<svg xmlns="http://www.w3.org/2000/svg" width="25" height="24" viewBox="0 0 25 24" fill="none">
<path d="M6.09607 13.2808C4.65764 12.5517 2.94335 12.2364 0.500007 12.0985C0.500007 12.0591 0.500007 12.0394 0.500007 12C0.500007 11.9606 0.500007 11.9409 0.500007 11.9015C2.94335 11.7635 4.63794 11.468 6.09607 10.7192C8.30296 9.59606 10.0961 7.80295 11.2192 5.59606C11.9483 4.15763 12.2636 2.44335 12.4015 -1.05769e-06C12.4409 -1.05424e-06 12.4606 -1.05252e-06 12.5 -1.04907e-06C12.5394 -1.04563e-06 12.5591 -1.04391e-06 12.5985 -1.04046e-06C12.7365 2.44335 13.032 4.13793 13.7808 5.59606C14.9039 7.80295 16.697 9.59606 18.9039 10.7192C20.3424 11.4483 22.0567 11.7635 24.5 11.9015C24.5 11.9409 24.5 11.9606 24.5 12C24.5 12.0394 24.5 12.0591 24.5 12.0985C22.0567 12.2365 20.3621 12.532 18.9039 13.2808C16.697 14.4039 14.9039 16.197 13.7808 18.4039C13.0517 19.8424 12.7365 21.5566 12.5985 24C12.5591 24 12.5394 24 12.5 24C12.4606 24 12.4409 24 12.4015 24C12.2635 21.5566 11.9483 19.8621 11.2192 18.4039C10.0961 16.197 8.30296 14.4039 6.09607 13.2808Z" fill="white" fill-opacity="0.3"/>
</svg>