<svg width="205" height="56" viewBox="0 0 205 56" fill="none" xmlns="http://www.w3.org/2000/svg">
<rect width="205" height="56" rx="12" transform="matrix(1 0 0 -1 0 56)" fill="#25222A"/>
<path d="M37.0432 32.59L32.7412 19.9H35.7112L38.3212 28.432L41.1472 19.864H43.5232L46.3492 28.432L48.9592 19.9H51.8572L47.5552 32.59H45.1432L42.2992 24.346L39.4552 32.59H37.0432ZM53.6224 32.5V19.36H56.3584V24.22C57.1624 23.188 58.1044 22.672 59.1844 22.672C60.2164 22.672 61.0204 22.99 61.5964 23.626C62.1724 24.262 62.4604 25.138 62.4604 26.254V32.5H59.7244V27.118C59.7244 26.482 59.5804 25.996 59.2924 25.66C59.0044 25.324 58.5964 25.156 58.0684 25.156C57.5404 25.156 57.1204 25.324 56.8084 25.66C56.5084 25.996 56.3584 26.482 56.3584 27.118V32.5H53.6224ZM64.8913 21.79V19.36H67.7713V21.79H64.8913ZM64.9633 32.5V22.852H67.6993V32.5H64.9633ZM73.5269 32.662C72.6269 32.662 71.9309 32.446 71.4389 32.014C70.9589 31.57 70.7189 30.82 70.7189 29.764V25.192H69.5669V22.852H70.7189V20.386H73.4549V22.852H75.7229V25.192H73.4549V29.314C73.4549 29.938 73.7489 30.25 74.3369 30.25C74.8169 30.25 75.2669 30.136 75.6869 29.908V32.104C75.0629 32.476 74.3429 32.662 73.5269 32.662ZM82.048 32.716C80.584 32.716 79.378 32.254 78.43 31.33C77.482 30.394 77.008 29.182 77.008 27.694C77.008 26.29 77.458 25.102 78.358 24.13C79.258 23.158 80.398 22.672 81.778 22.672C83.302 22.672 84.466 23.176 85.27 24.184C86.074 25.192 86.476 26.434 86.476 27.91C86.476 28.054 86.464 28.294 86.44 28.63H79.726C79.858 29.242 80.128 29.71 80.536 30.034C80.944 30.358 81.46 30.52 82.084 30.52C82.936 30.52 83.716 30.19 84.424 29.53L85.99 30.916C85.018 32.116 83.704 32.716 82.048 32.716ZM79.69 26.92H83.812C83.728 26.296 83.506 25.798 83.146 25.426C82.798 25.054 82.342 24.868 81.778 24.868C81.226 24.868 80.764 25.054 80.392 25.426C80.032 25.786 79.798 26.284 79.69 26.92ZM88.515 35.38V22.852H91.251V24.238C92.019 23.194 93.021 22.672 94.257 22.672C95.457 22.672 96.489 23.122 97.353 24.022C98.217 24.922 98.649 26.146 98.649 27.694C98.649 29.23 98.217 30.448 97.353 31.348C96.501 32.236 95.469 32.68 94.257 32.68C93.057 32.68 92.055 32.2 91.251 31.24V35.38H88.515ZM91.881 29.62C92.337 30.112 92.895 30.358 93.555 30.358C94.215 30.358 94.773 30.112 95.229 29.62C95.685 29.116 95.913 28.462 95.913 27.658C95.913 26.878 95.685 26.242 95.229 25.75C94.773 25.246 94.215 24.994 93.555 24.994C92.895 24.994 92.337 25.246 91.881 25.75C91.437 26.242 91.215 26.89 91.215 27.694C91.215 28.474 91.437 29.116 91.881 29.62ZM103.398 32.68C102.45 32.68 101.658 32.416 101.022 31.888C100.398 31.36 100.086 30.628 100.086 29.692C100.086 28.672 100.434 27.904 101.13 27.388C101.838 26.872 102.786 26.614 103.974 26.614C104.778 26.614 105.564 26.746 106.332 27.01V26.848C106.332 25.672 105.642 25.084 104.262 25.084C103.434 25.084 102.546 25.258 101.598 25.606L100.914 23.518C102.09 23.002 103.338 22.744 104.658 22.744C106.11 22.744 107.196 23.104 107.916 23.824C108.612 24.52 108.96 25.546 108.96 26.902V32.5H106.314V31.456C105.582 32.272 104.61 32.68 103.398 32.68ZM104.226 30.79C104.862 30.79 105.378 30.634 105.774 30.322C106.17 29.998 106.368 29.59 106.368 29.098V28.612C105.852 28.372 105.27 28.252 104.622 28.252C104.022 28.252 103.554 28.372 103.218 28.612C102.894 28.84 102.732 29.176 102.732 29.62C102.732 29.98 102.87 30.268 103.146 30.484C103.422 30.688 103.782 30.79 104.226 30.79ZM111.314 35.38V22.852H114.05V24.238C114.818 23.194 115.82 22.672 117.056 22.672C118.256 22.672 119.288 23.122 120.152 24.022C121.016 24.922 121.448 26.146 121.448 27.694C121.448 29.23 121.016 30.448 120.152 31.348C119.3 32.236 118.268 32.68 117.056 32.68C115.856 32.68 114.854 32.2 114.05 31.24V35.38H111.314ZM114.68 29.62C115.136 30.112 115.694 30.358 116.354 30.358C117.014 30.358 117.572 30.112 118.028 29.62C118.484 29.116 118.712 28.462 118.712 27.658C118.712 26.878 118.484 26.242 118.028 25.75C117.572 25.246 117.014 24.994 116.354 24.994C115.694 24.994 115.136 25.246 114.68 25.75C114.236 26.242 114.014 26.89 114.014 27.694C114.014 28.474 114.236 29.116 114.68 29.62ZM128.032 32.716C126.568 32.716 125.362 32.254 124.414 31.33C123.466 30.394 122.992 29.182 122.992 27.694C122.992 26.29 123.442 25.102 124.342 24.13C125.242 23.158 126.382 22.672 127.762 22.672C129.286 22.672 130.45 23.176 131.254 24.184C132.058 25.192 132.46 26.434 132.46 27.91C132.46 28.054 132.448 28.294 132.424 28.63H125.71C125.842 29.242 126.112 29.71 126.52 30.034C126.928 30.358 127.444 30.52 128.068 30.52C128.92 30.52 129.7 30.19 130.408 29.53L131.974 30.916C131.002 32.116 129.688 32.716 128.032 32.716ZM125.674 26.92H129.796C129.712 26.296 129.49 25.798 129.13 25.426C128.782 25.054 128.326 24.868 127.762 24.868C127.21 24.868 126.748 25.054 126.376 25.426C126.016 25.786 125.782 26.284 125.674 26.92ZM134.499 32.5V22.852H137.235V24.796C137.859 23.32 138.885 22.612 140.313 22.672V25.534H140.169C139.233 25.534 138.507 25.822 137.991 26.398C137.487 26.962 137.235 27.808 137.235 28.936V32.5H134.499Z" fill="white"/>
<path d="M166.625 37H154.25C153.007 37 152 35.9926 152 34.75V22.375C152 21.1324 153.007 20.125 154.25 20.125H158.75V22.375H154.25V34.75H166.625V30.25H168.875V34.75C168.875 35.9926 167.868 37 166.625 37ZM160.663 29.9204L159.076 28.3296L166.156 21.25H162.125V19H170V26.875H167.75V22.8419L160.663 29.9204Z" fill="#BBEC6C"/>
</svg>
